<!-- Generated by IcoMoon.io -->
<svg version="1.1" xmlns="http://www.w3.org/2000/svg" width="1024" height="1024" viewBox="0 0 1024 1024">
<title></title>
<g id="icomoon-ignore">
</g>
<path fill="#f4f4fd" d="M1023.75 1023.994v-0.045h0.256v-375.552c0-183.723-39.552-325.249-254.336-325.249-103.251 0-172.545 56.662-200.833 110.379h-2.986v-93.227h-203.649v683.649h212.054v-338.515c0-89.133 16.896-175.32 127.273-175.32 108.762 0 110.381 101.717 110.381 181.035v332.845h211.84z"></path>
<path fill="#f4f4fd" d="M16.898 340.344h212.309v683.65h-212.309v-683.65z"></path>
<path fill="#f4f4fd" d="M122.969-0.008c-67.882 0-122.965 55.083-122.965 122.965s55.083 124.118 122.965 124.118c67.883 0 122.966-56.235 122.966-124.118-0.043-67.883-55.126-122.965-122.966-122.965v0z"></path>
</svg>
